<?xml version="1.0" encoding="utf-8"?>
<!-- Generator: Adobe Illustrator 22.0.1, SVG Export Plug-In . SVG Version: 6.00 Build 0)  -->
<svg version="1.1" id="Layer_1" xmlns="http://www.w3.org/2000/svg" xmlns:xlink="http://www.w3.org/1999/xlink" x="0px" y="0px"
	 viewBox="0 0 349 349" style="enable-background:new 0 0 349 349;" xml:space="preserve">
<style type="text/css">
	.st0{fill:#E9EEEF;}
</style>
<g transform="translate(0.000000,349.000000) scale(0.100000,-0.100000)">
	<path class="st0" d="M1113,3361c-46-33-92-88-123-148c-18-35-30-44-73-59c-110-36-458-235-532-304c-16-15-36-20-76-20
		c-70,0-176-23-227-49c-75-38-100-97-67-160c24-47,114-120,195-159l77-36l6-155c4-86,11-169,15-186c9-30,9-30,27,25
		c35,107,112,276,167,370c137,231,294,352,461,353c37,0,67,4,67,9c0,22,95,108,138,125c60,23,214,23,287,0c64-20,45-5-71,58l-82,45
		l-4,107c-3,86-8,116-26,150C1235,3398,1180,3410,1113,3361z M1190,3235c15-18,27-109,14-104c-85,35-124,54-124,60c0,13,61,59,80,59
		C1169,3250,1183,3243,1190,3235z M316,2706c-3-13-10-54-15-91s-12-69-14-72c-8-7-84,44-101,69c-43,61,1,101,128,117
		C318,2730,319,2719,316,2706z"/>
	<path class="st0" d="M1212,2906c-57-19-113-58-135-95c-15-26-23-29-79-33c-39-2-82-13-112-28c-73-35-188-150-261-260
		c-94-141-247-470-280-602c-6-25-4-28,34-38c77-21,147-30,301-40c168-10,263-31,366-81c176-83,310-216,431-426
		c137-239,226-339,357-404c235-115,507-55,851,189c173,124,432,419,637,727c113,170,168,277,168,327c0,43-35,93-114,166
		c-160,145-271,205-290,156c-12-32,9-84,96-236c49-85,50-89,34-113c-26-40-73-58-165-63c-78-4-84-3-77,14c11,28,20,362,12,428
		c-12,89-43,117-166,146c-102,24-286,37-309,22c-9-7-11-19-7-36c7-28,89-87,193-140c29-14,56-33,61-42c28-51-42-130-173-194l-90-44
		l83-8c105-10,216-47,307-101l70-41l-90-12c-49-6-117-17-150-24c-152-31-326-125-404-219c-35-42-84-133-105-193c-5-15-19-18-98-18
		c-125,0-301,17-365,36c-96,27-153,103-137,182c11,56,59,91,151,110c80,18,142,44,222,96c131,86,208,121,379,172c24,7-19,62-61,79
		c-57,23-121,7-302-76c-165-75-234-94-302-84c-43,6-46,5-97-43c-100-95-239-143-411-143c-109,0-187,16-263,55
		c-47,24-142,101-142,115c0,4,33-3,73-17c55-18,85-23,125-19c85,9,120,33,180,122c71,108,125,160,202,198c57,28,75,32,156,34
		c140,2,199,41,243,157c27,73,39,217,20,233c-22,18-160,70-246,93C1432,2918,1271,2925,1212,2906z M1490,2654c12-12,8-14-28-14
		c-48,0-93-20-134-58c-27-25-28-25-28-5c0,30,46,81,83,92C1421,2680,1469,2673,1490,2654z M1094,2464c21-8,20-24-1-24
		c-33,0-98-40-122-75c-27-41-43-38-31,6C960,2440,1036,2486,1094,2464z"/>
	<path class="st0" d="M1450,2314c-128-78-136-100-45-123c63-16,81-14,110,12c46,40,63,158,22,157C1530,2360,1491,2339,1450,2314z"/>
	<path class="st0" d="M493,1701c-28-5-87-17-130-26c-70-16-75-19-53-28c89-35,173-80,225-120c140-107,233-269,270-472
		c27-151,23-148,56-49c37,110,125,267,231,409c44,59,76,110,71,114c-5,3-29,20-53,37c-71,50-166,94-249,115
		C776,1704,578,1714,493,1701z"/>
	<path class="st0" d="M3057,1293c-54-69-115-134-176-187l-45-39l66-61c82-76,194-138,208-116c20,32,40,153,40,243
		c0,86-19,189-39,210C3107,1347,3083,1325,3057,1293z"/>
	<path class="st0" d="M1323,1198c-174-185-266-389-267-593c0-143,19-201,87-258c28-25,79-62,112-83c61-38,200-104,222-104
		c7,0-9,28-35,63c-66,86-93,155-99,248c-10,142,36,294,136,445l58,88l-51,77c-28,42-63,97-76,122c-14,26-28,47-31,47
		S1351,1226,1323,1198z"/>
	<path class="st0" d="M2570,884c-30-18-84-46-120-61c-87-36-89-38-84-81c24-179,95-303,208-362l43-24l69,49c79,57,204,163,204,173
		c-1,4-30,29-65,56c-84,62-151,152-172,227c-9,33-19,59-22,58C2628,919,2600,903,2570,884z"/>
	<path class="st0" d="M1710,775c-33-78-53-198-45-279c12-128,82-281,164-361c29-27,33-28,105-22c77,7,230,37,277,55l26,10l-77,79
		c-86,87-130,168-151,271c-11,57-8,157,6,193c4,11-14,18-77,30c-46,9-108,28-139,43c-31,14-59,26-63,26S1721,800,1710,775z"/>
</g>
</svg>
